<?xml version="1.0" standalone="no"?>
<!DOCTYPE svg PUBLIC "-//W3C//DTD SVG 1.1//EN" "http://www.w3.org/Graphics/SVG/1.1/DTD/svg11.dtd" >
<svg>
<metadata>
Created by FontForge 20090914 at Thu Feb 23 22:26:49 2012
 By root
2003 by FR. All Rights Reserved
</metadata>
<defs>
<font id="CaracteresL1" horiz-adv-x="1024" >
  <font-face 
    font-family="Caracteres L1"
    font-weight="500"
    font-stretch="normal"
    units-per-em="2048"
    panose-1="2 0 6 0 0 0 0 0 0 0"
    ascent="1638"
    descent="-410"
    x-height="1464"
    cap-height="1466"
    bbox="-15 -381 6002 1838"
    underline-thickness="150"
    underline-position="-142"
    unicode-range="U+0020-U+2265"
  />
<missing-glyph 
d="M129 0v1464h768v-1464h-768zM256 104h512v1258h-512v-1258z" />
    <glyph glyph-name=".notdef" 
d="M129 0v1464h768v-1464h-768zM256 104h512v1258h-512v-1258z" />
    <glyph glyph-name=".null" horiz-adv-x="0" 
 />
    <glyph glyph-name="nonmarkingreturn" horiz-adv-x="569" 
 />
    <glyph glyph-name="space" unicode=" " horiz-adv-x="629" 
 />
    <glyph glyph-name="space" unicode="&#xa0;" horiz-adv-x="629" 
 />
    <glyph glyph-name="exclam" unicode="!" horiz-adv-x="485" 
d="M107 507v962h284v-962h-284zM394 212q13 -31 13 -62t-13 -62q-27 -62 -86 -87q-29 -12 -58 -12t-58 12q-57 25 -83 87q-12 31 -12 62t12 62q26 62 86 85q29 11 57 11q29 0 58 -11q57 -23 84 -85z" />
    <glyph glyph-name="quotedbl" unicode="&#x22;" 
d="M129 0v1464h768v-1464h-768zM256 104h512v1258h-512v-1258z" />
    <glyph glyph-name="numbersign" unicode="#" 
d="M129 0v1464h768v-1464h-768zM256 104h512v1258h-512v-1258z" />
    <glyph glyph-name="dollar" unicode="$" horiz-adv-x="866" 
d="M240 1231l254 66v-237h191v-238h-191v-523q9 -80 97 -81q60 3 113 37l72 -210q-89 -47 -211 -53h-4q-144 0 -230 76q-80 70 -92 236v518h-128l-1 242h131z" />
    <glyph glyph-name="percent" unicode="%" horiz-adv-x="2645" 
d="M119 1469h262v-787l291 355h323l-302 -379l402 -657h-293l-272 464l-147 -187v-277l-262 -2zM1142 1039h247v-68q70 64 206 77q147 2 198 -47q60 -30 98 -107q93 154 253 154h87q145 -18 211 -103q83 -93 106 -255v-689h-249v651q-30 149 -157 149q-151 4 -172 -168v-632
h-249v628q-17 178 -166 174q-138 -4 -155 -172l-3 -630h-257z" />
    <glyph glyph-name="ampersand" unicode="&#x26;" horiz-adv-x="1642" 
d="M123 1039h247v-68q70 64 206 77h11q138 0 187 -47q60 -30 98 -107q93 154 253 154h87q145 -18 211 -103q83 -93 106 -255v-689h-249v651q-30 149 -157 149q-151 4 -172 -168v-632h-249v628q-17 178 -166 174q-138 -4 -155 -172l-3 -630h-257z" />
    <glyph glyph-name="quotesingle" unicode="'" horiz-adv-x="521" 
d="M448 1469l-95 -313h-337l99 313h333z" />
    <glyph glyph-name="parenleft" unicode="(" horiz-adv-x="659" 
d="M363 -170q-144 210 -217.5 431.5t-73.5 447.5q0 227 73.5 447.5t217.5 430.5h248q-134 -210 -200 -428t-66 -450t66 -450t200 -429h-248z" />
    <glyph glyph-name="parenright" unicode=")" horiz-adv-x="712" 
d="M72 -170q134 211 200 429t66 450t-66 450t-200 428h248q144 -210 217.5 -430.5t73.5 -447.5q0 -226 -73.5 -447.5t-217.5 -431.5h-248z" />
    <glyph glyph-name="asterisk" unicode="*" 
d="M129 0v1464h768v-1464h-768zM256 104h512v1258h-512v-1258z" />
    <glyph glyph-name="plus" unicode="+" horiz-adv-x="1127" 
d="M475 1232h184v-381h369v-178h-369v-383h-184v383h-371v178h371v381z" />
    <glyph glyph-name="comma" unicode="," horiz-adv-x="432" 
d="M59 273h328l-90 -563h-238v563z" />
    <glyph glyph-name="hyphen" unicode="-" horiz-adv-x="683" 
d="M590 812v-278h-528v278h528z" />
    <glyph glyph-name="hyphen" unicode="&#xad;" horiz-adv-x="683" 
d="M590 812v-278h-528v278h528z" />
    <glyph glyph-name="period" unicode="." horiz-adv-x="504" 
d="M89 302h300v-302h-300v302z" />
    <glyph glyph-name="slash" unicode="/" horiz-adv-x="1056" 
d="M1042 1504l-801 -1550h-256l809 1550h248z" />
    <glyph glyph-name="zero" unicode="0" horiz-adv-x="1177" 
d="M563 276q62 -4 77 2l1 -2l55 12q66 22 101 95q27 73 40 174l5 226l-3 106l-10 79l-4 4l-13 56l-4 2q-15 60 -57 111q-32 26 -51 34l-58 14l-61 3q-41 1 -91 -17q-46 -22 -77 -79q-22 -53 -40 -133l2 -6q-6 -5 -7 -33q-14 -117 -3 -343l16 -109l21 -77q23 -60 63 -87
q36 -23 98 -32zM65 578q-3 56 -3 110q0 27 1 54q3 106 17 206v7l4 9l7 69l5 10l10 56l4 6q15 72 65 162l29 44l56 57q89 72 231 103q45 8 93 8h8q75 -2 157 -25q34 -4 109 -45q77 -48 140 -131l32 -49l26 -55l11 -40l3 -3v-10q10 -21 12 -33l4 -5l17 -89l3 -2l-2 -13l4 -8
l10 -107l4 -10l-3 -1l7 -63l-2 -2q4 -10 0 -12l3 -10l-2 -3l5 -68l-2 -2l3 -29l-1 -2v-40q-1 -37 -6 -89l-5 -37l2 -2l-5 -10q-3 -37 -17 -88l-6 -19l-1 -11l-26 -74l-5 -4q0 -10 -26 -61l-48 -69q-79 -91 -175 -133q-63 -25 -127 -33l-77 -5l-18 1q-228 6 -368 148
q-69 77 -104 179q-40 104 -49 219z" />
    <glyph glyph-name="one" unicode="1" horiz-adv-x="1177" 
d="M859 1469v-1469h-279l1 1037h-4q-3 -13 -72 -57l-87 -46l-78 -30q-47 -10 -51 -15v310l62 29q155 99 223 241h285z" />
    <glyph glyph-name="two" unicode="2" horiz-adv-x="1177" 
d="M700 1468q99 -16 219 -101q36 -29 79 -91l35 -64l13 -31l-3 -3q25 -68 25 -130q-6 -120 -22 -155q-27 -72 -48 -103l-23 -33l-51 -56l-417 -415h583v-286h-985l1 289l615 621q29 35 41 64q31 101 -29 170q-55 53 -155 53l-59 -8l-27 -13l-17 -1l-37 -29l-21 -25
q-20 -36 -27 -56l-6 -35q-4 -11 -5 -8l-270 -1l-2 7l2 49l4 6q4 63 41 141l46 77l37 41l6 2q106 95 236 118q76 13 138 13q46 0 83 -7z" />
    <glyph glyph-name="three" unicode="3" horiz-adv-x="1180" 
d="M711 1472q82 -17 156 -66l68 -58q45 -54 58 -76l31 -62q26 -76 28 -155l-5 -76l-17 -56q-29 -72 -90 -146l5 -13l48 -53l31 -47l28 -70q23 -73 23 -143q0 -142 -95 -270q-144 -173 -373 -181q-83 0 -137 10q-70 19 -99 32l-60 30l-51 37l-46 41l-47 61q-41 67 -58 127
l-1 9l263 72q19 -75 95 -114q47 -19 139 -21l47 5l38 12l29 17q30 20 54 59q12 25 18 68q2 35 -4 40q2 16 -14 49l-25 35q-27 27 -47 37q-25 14 -67 23l-109 3v271q22 -2 87 6l2 -2q119 14 150 130l-2 45l2 7l-4 14l-19 37q-28 35 -51 46q-4 3 -68 18l-63 -2v2l-62 -10
l-44 -19l-18 -14l-20 -29l-15 -37l-260 78l17 45l6 6q-2 5 23 50l28 45l40 46q22 12 22 18l21 15q78 58 182 74q52 8 125 8q53 0 107 -8z" />
    <glyph glyph-name="four" unicode="4" horiz-adv-x="1179" 
d="M971 1469v-881h145v-290h-146v-294h-292v295h-594v307l603 863h284zM408 590h280v405z" />
    <glyph glyph-name="five" unicode="5" horiz-adv-x="1177" 
d="M1024 1470l-1 -281h-494l-34 -250q70 20 148 17q73 2 149 -16q110 -35 196 -123q119 -130 135 -288q1 -23 1 -45q0 -96 -25 -166q-46 -107 -126 -192q-132 -124 -322 -124h-20l-92 6q-144 16 -250 101q-137 126 -169 259l288 73q13 -59 68 -106q83 -61 234 -25
q125 51 117 178q3 115 -104 163q-74 22 -167 12q-71 -15 -127 -55l-249 195l74 667h770z" />
    <glyph glyph-name="six" unicode="6" horiz-adv-x="1179" 
d="M724 1467q301 -45 387 -339l-279 -77q-40 110 -147 124q-184 23 -240 -86q-37 -60 -58 -300q210 146 455 54q195 -85 250 -278q11 -58 11 -112q0 -161 -98 -284q-116 -145 -324 -163q-38 -3 -74 -3q-471 0 -507 560q-4 74 -4 142q0 219 38 377q51 208 205 311
q120 81 287 81q48 0 98 -7zM581 270q211 -9 240 146q8 168 -174 189q-214 8 -239 -156q2 -162 173 -179z" />
    <glyph glyph-name="seven" unicode="7" horiz-adv-x="1179" 
d="M1066 1470v-308q-217 -214 -368 -619q-93 -291 -86 -543h-302q-2 588 395 1171h-561v299h922z" />
    <glyph glyph-name="eight" unicode="8" horiz-adv-x="1182" 
d="M718 1472q149 -29 251 -160t84 -322q-27 -131 -108 -219q134 -155 134 -326q0 -99 -46 -203q-142 -245 -419 -257q-229 3 -363 139q-114 124 -130 276q-1 17 -1 35q0 198 134 330q-112 152 -112 259q1 192 104 308q108 115 228 138q63 12 127 12q57 0 117 -10zM587 262
q191 5 222 163q4 180 -183 211q-199 10 -235 -168q-6 -181 196 -206zM572 903q181 -7 211 145q-11 145 -168 153q-182 0 -198 -135q4 -134 155 -163z" />
    <glyph glyph-name="nine" unicode="9" horiz-adv-x="1183" 
d="M486 1469v-2q57 6 108 6q168 0 269 -65q131 -85 178.5 -209t59.5 -291q5 -69 5 -141q0 -102 -10 -211q-17 -184 -88 -322q-134 -210 -360 -238q-19 -1 -36 -1q-436 0 -527 351l278 74l16 -30q48 -103 204 -103q137 7 183 114q24 47 49 284q-209 -145 -443 -62
q-221 93 -269 285q-9 56 -9 108q0 172 103 300q113 131 286 153h3zM553 867q213 -8 239 157q-3 160 -173 180q-214 18 -242 -147q-5 -171 176 -190z" />
    <glyph glyph-name="colon" unicode=":" horiz-adv-x="517" 
d="M90 311h332v-311h-332v311zM90 908h332v-311h-332v311z" />
    <glyph glyph-name="semicolon" unicode=";" horiz-adv-x="515" 
d="M99 895l298 -1v-340l-298 1v340zM100 273h317l-87 -562h-230v562z" />
    <glyph glyph-name="semicolon" unicode="&#x37e;" horiz-adv-x="515" 
d="M99 895l298 -1v-340l-298 1v340zM100 273h317l-87 -562h-230v562z" />
    <glyph glyph-name="less" unicode="&#x3c;" horiz-adv-x="6124" 
d="M502.5 1297.5q-204.5 -266.5 -183.5 -580.5q-27 -316 167 -571.5t594 -282.5h1421v-244h-1421q-495 27 -755 342q-250 303 -250 723v33q-1 28 -1 56v28q0 360 251 698q295 307 755 339h1421l1 -260h-1422q-373 -14 -577.5 -280.5zM895 52l207 1289h148v-1289h-355z
M1339 52v1289h148l69 -457q77 135 229 198l-135 152q-60 83 27 105h760l-394 -678q-76 -92 -106 50l-54 177q-140 -121 -189 -301.5t-28 -339.5l28 -195h-355zM4986 1578h-2532l1 260h2531q460 -32 755 -339q261 -351 261 -716q0 -28 -1 -56q0 -451 -260 -766t-755 -342
h-2531v244h2531q400 27 594 282.5t177 581.5q11 304 -193.5 570.5t-577.5 280.5z" />
    <glyph glyph-name="equal" unicode="=" horiz-adv-x="1168" 
d="M144 665h899v-173h-899v173zM144 1001h899v-173h-899v173z" />
    <glyph glyph-name="greater" unicode="&#x3e;" horiz-adv-x="1694" 
d="M77 52l207 1289h148v-1289h-355zM521 52v1289h148l69 -457q77 135 229 198l-135 152q-60 83 27 105h760l-394 -678q-76 -92 -106 50l-54 177q-140 -121 -189 -301.5t-28 -339.5l28 -195h-355z" />
    <glyph glyph-name="question" unicode="?" horiz-adv-x="1071" 
d="M14 804q0 6 13 9q98 28 128 40q15 -19 40 -33q40 -22 84 -27q48 -1 59 2q55 15 68 29q14 10 22 50q3 15 -4 35q-9 13 -18 21l-19 13l-21 8q-176 51 -193 60q-83 30 -123 100q-25 45 -23 113q10 81 73 130q73 47 150 52h11q56 0 94 -8q73 -19 115 -53q41 -31 68 -85l-2 -4
l-114 -52l-7 3q-10 31 -59 51q-55 19 -128 1q-33 -11 -46 -26q-4 -3 -12 -24q0 -25 3 -30q7 -17 29 -31l15 -6q158 -42 214 -62q49 -20 74 -45l31 -38q35 -53 37 -116q2 -21 -6 -62q-15 -48 -34 -70q-33 -39 -48 -46q-81 -51 -169 -56h-51q-56 6 -95 21q-62 27 -101 59
q-32 27 -55 77zM1070 1303l-714 -1058h-132l724 1058h122z" />
    <glyph glyph-name="at" unicode="@" 
d="M129 0v1464h768v-1464h-768zM256 104h512v1258h-512v-1258z" />
    <glyph glyph-name="A" unicode="A" horiz-adv-x="1179" 
d="M772 1468l378 -1465h-287l-63 249h-405l-64 -249h-290l374 1465h357zM450 531h289l-140 572z" />
    <glyph glyph-name="B" unicode="B" horiz-adv-x="1091" 
d="M597 1466q226 -24 329 -203q82 -156 49 -332q-36 -105 -119 -171q158 -116 170 -329q2 -16 2 -32q0 -63 -29 -132q-90 -232 -397 -267h-532v1466h527zM342 897h205q158 1 161 148q5 153 -152 156h-214v-304zM340 254l249 1q108 27 137 131q16 181 -139 212h-247v-344z
" />
    <glyph glyph-name="C" unicode="C" horiz-adv-x="1088" 
d="M666 1484q291 -50 381 -347l9 -49l-253 -53q-31 128 -106 170t-176 -8q-67 -57 -111.5 -156t-58.5 -268q-6 -180 47 -312.5t128.5 -175.5t154.5 -12q79 20 126 163l253 -78q-51 -201 -197 -291q-107 -68 -252 -77q-273 6 -408 223q-142 236 -146 511q2 344 148 563
q92 121 206 167q86 34 187 34q33 0 68 -4z" />
    <glyph glyph-name="D" unicode="D" horiz-adv-x="1143" 
d="M673 1471q144 -17 244.5 -115t145.5 -232q21 -59 31 -155v-450q-15 -228 -143.5 -368t-312.5 -149h-580l1 1469h614zM345 291h234q71 11 121 52.5t85 145.5q19 64 11 466q-47 208 -217 239h-234v-903z" />
    <glyph glyph-name="E" unicode="E" horiz-adv-x="1028" 
d="M952 1465v-268h-606v-320h444v-271h-444v-335h632v-271h-914l1 1465h887z" />
    <glyph glyph-name="F" unicode="F" horiz-adv-x="999" 
d="M959 1468v-268h-606v-320h444v-272h-444l-1 -606h-282l1 1466h888z" />
    <glyph glyph-name="G" unicode="G" horiz-adv-x="1155" 
d="M645 1486q287 -30 408 -381l-260 -68q-70 154 -160 185q-117 44 -226 -123q-68 -112 -84 -327q-3 -237 74.5 -368t182.5 -146q177 3 250 267h-237v267h522v-12q1 -24 1 -49q0 -349 -167 -566q-112 -154 -328 -172h-22q-480 0 -542 682q-1 20 -1 41q0 351 159 588
q94 120 203 155q86 28 180 28q23 0 47 -1z" />
    <glyph glyph-name="H" unicode="H" horiz-adv-x="1104" 
d="M357 1466v-587h403v586h281v-1465h-281v606h-403v-606h-281v1466h281z" />
    <glyph glyph-name="I" unicode="I" horiz-adv-x="466" 
d="M375 1466v-1466h-278v1466h278z" />
    <glyph glyph-name="J" unicode="J" horiz-adv-x="1031" 
d="M941 1463l-1 -996q-5 -265 -194 -406q-101 -72 -228 -80q-14 -1 -28 -1q-187 0 -312 126q-129 136 -145 354v65h266v-65q20 -223 202 -205q144 18 160 210v998h280z" />
    <glyph glyph-name="K" unicode="K" horiz-adv-x="1152" 
d="M361 1468v-493l353 493h310l-372 -547l459 -921h-310l-330 670l-92 -125v-545h-302v1468h284z" />
    <glyph glyph-name="L" unicode="L" horiz-adv-x="968" 
d="M353 1468l1 -1206h567l-1 -262h-844v1468h277z" />
    <glyph glyph-name="M" unicode="M" horiz-adv-x="1530" 
d="M96 1468h377l295 -777l302 777h376v-1468h-279v927l-365 -927h-73l-362 919l3 -919h-274v1468z" />
    <glyph glyph-name="N" unicode="N" horiz-adv-x="1149" 
d="M431 1468l368 -782v782h272l1 -1468h-267l-447 925l-1 -926h-275v1469h349z" />
    <glyph glyph-name="O" unicode="O" horiz-adv-x="1185" 
d="M670 1484q242 -37 358 -286q99 -184 99 -452v-18q0 -335 -163 -570q-116 -158 -328 -177q-22 -2 -43 -2q-220 0 -369 186q-154 248 -156 509q-1 22 -1 44q0 353 157 584q105 126 219 161q79 25 158 25q35 0 69 -4zM593 235q116 6 196 159q58 102 73 300q3 252 -89 413
q-75 112 -166 125q-120 -6 -200 -157q-57 -106 -74 -304q-2 -252 91 -412q74 -112 169 -124z" />
    <glyph glyph-name="P" unicode="P" horiz-adv-x="1104" 
d="M633 1468q128 -14 226.5 -92t141.5 -176q54 -105 54 -225q0 -56 -1 -73q-8 -138 -57 -230t-107 -141q-126 -115 -265 -117h-278v-411h-274v1465h560zM351 706h226q52 6 86 26q92 55 110 191q3 123 -50 187t-141 73h-231v-477z" />
    <glyph glyph-name="Q" unicode="Q" horiz-adv-x="1185" 
d="M670 1484q242 -37 358 -286q99 -184 99 -452v-18q0 -335 -163 -570q-116 -158 -328 -177q-22 -2 -43 -2q-220 0 -369 186q-154 248 -156 509q-1 22 -1 44q0 353 157 584q105 126 219 161q79 25 158 25q35 0 69 -4zM593 235q116 6 196 159q58 102 73 300q3 252 -89 413
q-75 112 -166 125q-120 -6 -200 -157q-57 -106 -74 -304q-2 -252 91 -412q74 -112 169 -124zM853 196l163 -303h-324l-193 303h354z" />
    <glyph glyph-name="R" unicode="R" horiz-adv-x="1072" 
d="M552 1471q231 0 361 -166q114 -146 114 -329q0 -33 -4 -78q-24 -223 -223 -369l244 -528h-316l-209 437h-181v-440h-277l1 1473h490zM512 720l82 10q70 19 117 79q40 59 48 141q4 102 -60 178q-54 62 -157 70h-201v-478h171z" />
    <glyph glyph-name="S" unicode="S" horiz-adv-x="1102" 
d="M53 299v2q0 11 23 15q177 57 230 82q27 -37 71 -67q71 -42 152 -51q86 -2 107 4q99 28 122 57q23 20 40 97q4 30 -8 67q-15 25 -32 42l-34 26l-38 17q-317 99 -349 116q-147 59 -219 195q-47 91 -42 221q19 162 133 257q128 93 267 101h26q99 0 164 -15q132 -37 206 -103
q74 -61 122 -166l-3 -11l-206 -99l-10 5q-19 61 -107 99q-99 37 -232 2q-57 -19 -80 -49q-8 -8 -21 -50q-2 -49 4 -57q13 -34 52 -61l26 -11q284 -84 385 -122q87 -40 133 -88l56 -76q62 -103 66 -225q1 -8 1 -19q0 -39 -12 -105q-25 -93 -60 -137q-60 -74 -87 -89
q-147 -101 -303 -109h-91q-102 10 -172 40q-112 52 -181 116q-57 52 -99 149z" />
    <glyph glyph-name="T" unicode="T" horiz-adv-x="998" 
d="M951 1467v-282h-293v-1185h-272v1188h-313v279h878z" />
    <glyph glyph-name="U" unicode="U" horiz-adv-x="1153" 
d="M371 1464v-992q19 -190 214 -212q192 21 216 209v995h283v-1069q-37 -196 -185 -305q-132 -93 -270 -98q-22 -2 -43 -2q-205 0 -339 119q-153 148 -162 302v1053h286z" />
    <glyph glyph-name="V" unicode="V" horiz-adv-x="1199" 
d="M327 1467l297 -1054l255 1054h285l-355 -1466h-371l-393 1466h282z" />
    <glyph glyph-name="W" unicode="W" horiz-adv-x="1704" 
d="M326 1470l194 -846l214 845h260l195 -835l210 835h284l-362 -1469h-291l-180 752l-191 -752h-291l-335 1470h293z" />
    <glyph glyph-name="X" unicode="X" horiz-adv-x="1306" 
d="M400 1467l271 -452l271 450h323l-449 -726l453 -737h-322l-280 447l-265 -446l-355 -1l452 738l-451 727h352z" />
    <glyph glyph-name="Y" unicode="Y" horiz-adv-x="1168" 
d="M40 1467h293l263 -556l253 556h287l-411 -881v-586h-273v581z" />
    <glyph glyph-name="Z" unicode="Z" horiz-adv-x="1106" 
d="M1030 1464l-1 -283l-630 -906h648v-275h-991v294l615 887h-584v283h943z" />
    <glyph glyph-name="bracketleft" unicode="[" 
d="M129 0v1464h768v-1464h-768zM256 104h512v1258h-512v-1258z" />
    <glyph glyph-name="backslash" unicode="\" horiz-adv-x="1045" 
d="M236 1520l817 -1566h-259l-809 1566h251z" />
    <glyph glyph-name="bracketright" unicode="]" 
d="M129 0v1464h768v-1464h-768zM256 104h512v1258h-512v-1258z" />
    <glyph glyph-name="asciicircum" unicode="^" 
d="M129 0v1464h768v-1464h-768zM256 104h512v1258h-512v-1258z" />
    <glyph glyph-name="underscore" unicode="_" 
d="M129 0v1464h768v-1464h-768zM256 104h512v1258h-512v-1258z" />
    <glyph glyph-name="grave" unicode="`" 
d="M129 0v1464h768v-1464h-768zM256 104h512v1258h-512v-1258z" />
    <glyph glyph-name="a" unicode="a" horiz-adv-x="1179" 
d="M772 1468l378 -1465h-287l-63 249h-405l-64 -249h-290l374 1465h357zM450 531h289l-140 572z" />
    <glyph glyph-name="b" unicode="b" horiz-adv-x="1091" 
d="M597 1466q226 -24 329 -203q82 -156 49 -332q-36 -105 -119 -171q158 -116 170 -329q2 -16 2 -32q0 -63 -29 -132q-90 -232 -397 -267h-532v1466h527zM342 897h205q158 1 161 148q5 153 -152 156h-214v-304zM340 254l249 1q108 27 137 131q16 181 -139 212h-247v-344z
" />
    <glyph glyph-name="c" unicode="c" horiz-adv-x="1088" 
d="M666 1484q291 -50 381 -347l9 -49l-253 -53q-31 128 -106 170t-176 -8q-67 -57 -111.5 -156t-58.5 -268q-6 -180 47 -312.5t128.5 -175.5t154.5 -12q79 20 126 163l253 -78q-51 -201 -197 -291q-107 -68 -252 -77q-273 6 -408 223q-142 236 -146 511q2 344 148 563
q92 121 206 167q86 34 187 34q33 0 68 -4z" />
    <glyph glyph-name="d" unicode="d" horiz-adv-x="1143" 
d="M673 1471q144 -17 244.5 -115t145.5 -232q21 -59 31 -155v-450q-15 -228 -143.5 -368t-312.5 -149h-580l1 1469h614zM345 291h234q71 11 121 52.5t85 145.5q19 64 11 466q-47 208 -217 239h-234v-903z" />
    <glyph glyph-name="e" unicode="e" horiz-adv-x="1028" 
d="M952 1465v-268h-606v-320h444v-271h-444v-335h632v-271h-914l1 1465h887z" />
    <glyph glyph-name="f" unicode="f" horiz-adv-x="999" 
d="M959 1468v-268h-606v-320h444v-272h-444l-1 -606h-282l1 1466h888z" />
    <glyph glyph-name="g" unicode="g" horiz-adv-x="1155" 
d="M645 1486q287 -30 408 -381l-260 -68q-70 154 -160 185q-117 44 -226 -123q-68 -112 -84 -327q-3 -237 74.5 -378.5t182.5 -156.5q168 8 250 300h-237v267h522v-12q1 -24 1 -49q0 -361 -167 -588q-112 -154 -328 -172h-22q-480 0 -542 692q-1 20 -1 41q0 351 159 588
q94 120 203 155q86 28 180 28q23 0 47 -1z" />
    <glyph glyph-name="h" unicode="h" horiz-adv-x="1104" 
d="M357 1466v-587h403v586h281v-1465h-281v606h-403v-606h-281v1466h281z" />
    <glyph glyph-name="i" unicode="i" horiz-adv-x="466" 
d="M375 1466v-1466h-278v1466h278z" />
    <glyph glyph-name="j" unicode="j" horiz-adv-x="1031" 
d="M941 1463l-1 -996q-5 -265 -194 -406q-101 -72 -228 -80q-14 -1 -28 -1q-187 0 -312 126q-129 136 -145 354v65h266v-65q20 -223 202 -205q144 18 160 210v998h280z" />
    <glyph glyph-name="k" unicode="k" horiz-adv-x="1152" 
d="M361 1468v-493l353 493h310l-372 -547l459 -921h-310l-330 670l-92 -125v-545h-302v1468h284z" />
    <glyph glyph-name="l" unicode="l" horiz-adv-x="968" 
d="M353 1468l1 -1206h567l-1 -262h-844v1468h277z" />
    <glyph glyph-name="m" unicode="m" horiz-adv-x="1530" 
d="M96 1468h377l295 -777l302 777h376v-1468h-279v927l-365 -927h-73l-362 919l3 -919h-274v1468z" />
    <glyph glyph-name="n" unicode="n" horiz-adv-x="1149" 
d="M431 1468l368 -782v782h272l1 -1468h-267l-447 925l-1 -926h-275v1469h349z" />
    <glyph glyph-name="o" unicode="o" horiz-adv-x="1185" 
d="M670 1484q242 -37 358 -286q99 -184 99 -452v-18q0 -335 -163 -570q-116 -158 -328 -177q-22 -2 -43 -2q-220 0 -369 186q-154 248 -156 509q-1 22 -1 44q0 353 157 584q105 126 219 161q79 25 158 25q35 0 69 -4zM593 235q116 6 196 159q58 102 73 300q3 252 -89 413
q-75 112 -166 125q-120 -6 -200 -157q-57 -106 -74 -304q-2 -252 91 -412q74 -112 169 -124z" />
    <glyph glyph-name="p" unicode="p" horiz-adv-x="1104" 
d="M633 1468q128 -14 226.5 -92t141.5 -176q54 -105 54 -225q0 -56 -1 -73q-8 -138 -57 -230t-107 -141q-126 -115 -265 -117h-278v-411h-274v1465h560zM351 706h226q52 6 86 26q92 55 110 191q3 123 -50 187t-141 73h-231v-477z" />
    <glyph glyph-name="q" unicode="q" horiz-adv-x="1185" 
d="M670 1484q242 -37 358 -286q99 -184 99 -452v-18q0 -335 -163 -570q-116 -158 -328 -177q-22 -2 -43 -2q-220 0 -369 186q-154 248 -156 509q-1 22 -1 44q0 353 157 584q105 126 219 161q79 25 158 25q35 0 69 -4zM593 235q116 6 196 159q58 102 73 300q3 252 -89 413
q-75 112 -166 125q-120 -6 -200 -157q-57 -106 -74 -304q-2 -252 91 -412q74 -112 169 -124zM853 196l163 -303h-324l-193 303h354z" />
    <glyph glyph-name="r" unicode="r" horiz-adv-x="1072" 
d="M552 1471q231 0 361 -166q114 -146 114 -329q0 -33 -4 -78q-24 -223 -223 -369l244 -528h-316l-209 437h-181v-440h-277l1 1473h490zM512 720l82 10q70 19 117 79q40 59 48 141q4 102 -60 178q-54 62 -157 70h-201v-478h171z" />
    <glyph glyph-name="s" unicode="s" horiz-adv-x="1102" 
d="M53 299v2q0 11 23 15q177 57 230 82q27 -37 71 -67q71 -42 152 -51q86 -2 107 4q99 28 122 57q23 20 40 97q4 30 -8 67q-15 25 -32 42l-34 26l-38 17q-317 99 -349 116q-147 59 -219 195q-47 91 -42 221q19 162 133 257q128 93 267 101h26q99 0 164 -15q132 -37 206 -103
q74 -61 122 -166l-3 -11l-206 -99l-10 5q-19 61 -107 99q-99 37 -232 2q-57 -19 -80 -49q-8 -8 -21 -50q-2 -49 4 -57q13 -34 52 -61l26 -11q284 -84 385 -122q87 -40 133 -88l56 -76q62 -103 66 -225q1 -8 1 -19q0 -39 -12 -105q-25 -93 -60 -137q-60 -74 -87 -89
q-147 -101 -303 -109h-91q-102 10 -172 40q-112 52 -181 116q-57 52 -99 149z" />
    <glyph glyph-name="t" unicode="t" horiz-adv-x="998" 
d="M951 1467v-282h-293v-1185h-272v1188h-313v279h878z" />
    <glyph glyph-name="u" unicode="u" horiz-adv-x="1153" 
d="M371 1464v-992q19 -190 214 -212q192 21 216 209v995h283v-1069q-37 -196 -185 -305q-132 -93 -270 -98q-22 -2 -43 -2q-205 0 -339 119q-153 148 -162 302v1053h286z" />
    <glyph glyph-name="v" unicode="v" horiz-adv-x="1199" 
d="M327 1467l297 -1054l255 1054h285l-355 -1466h-371l-393 1466h282z" />
    <glyph glyph-name="w" unicode="w" horiz-adv-x="1704" 
d="M326 1470l194 -846l214 845h260l195 -835l210 835h284l-362 -1469h-291l-180 752l-191 -752h-291l-335 1470h293z" />
    <glyph glyph-name="x" unicode="x" horiz-adv-x="1306" 
d="M400 1467l271 -452l271 450h323l-449 -726l453 -737h-322l-280 447l-265 -446l-355 -1l452 738l-451 727h352z" />
    <glyph glyph-name="y" unicode="y" horiz-adv-x="1168" 
d="M40 1467h293l263 -556l253 556h287l-411 -881v-586h-273v581z" />
    <glyph glyph-name="z" unicode="z" horiz-adv-x="1106" 
d="M1030 1464l-1 -283l-630 -906h648v-275h-991v294l615 887h-584v283h943z" />
    <glyph glyph-name="braceleft" unicode="{" 
d="M129 0v1464h768v-1464h-768zM256 104h512v1258h-512v-1258z" />
    <glyph glyph-name="bar" unicode="|" 
d="M129 0v1464h768v-1464h-768zM256 104h512v1258h-512v-1258z" />
    <glyph glyph-name="braceright" unicode="}" 
d="M129 0v1464h768v-1464h-768zM256 104h512v1258h-512v-1258z" />
    <glyph glyph-name="asciitilde" unicode="~" 
d="M129 0v1464h768v-1464h-768zM256 104h512v1258h-512v-1258z" />
    <glyph glyph-name="Adieresis" unicode="&#xc4;" horiz-adv-x="1179" 
d="M889 1734.5q23 -53.5 0 -107t-74.5 -75t-100 0t-71.5 75t0 107t73 73.5q25 10 50 10t50 -10q50 -20 73 -73.5zM772 1468l378 -1465h-287l-63 249h-405l-64 -249h-290l374 1465h357zM450 531h289l-140 572zM554 1734.5q23 -53.5 0 -107t-74 -75t-100 0t-71.5 75t0 107
t73.5 73.5q25 10 50 10t50 -10q49 -20 72 -73.5z" />
    <glyph glyph-name="Aring" unicode="&#xc5;" 
d="M129 0v1464h768v-1464h-768zM256 104h512v1258h-512v-1258z" />
    <glyph glyph-name="Ccedilla" unicode="&#xc7;" horiz-adv-x="1088" 
d="M666 1484q291 -50 381 -347l9 -49l-253 -53q-31 128 -106 170t-176 -8q-67 -57 -111.5 -156t-58.5 -268q-6 -180 47 -312.5t128.5 -175.5t154.5 -12q79 20 126 163l253 -78q-51 -201 -197 -291q-107 -68 -252 -77q-273 6 -408 223q-142 236 -146 511q2 344 148 563
q92 121 206 167q86 34 187 34q33 0 68 -4zM696 206l-168 -330h-324l138 330h354z" />
    <glyph glyph-name="Eacute" unicode="&#xc9;" horiz-adv-x="1028" 
d="M952 1465v-268h-606v-320h444v-271h-444v-335h632v-271h-914v1465h888zM741 1832l-155 -304h-309l127 304h337z" />
    <glyph glyph-name="Ntilde" unicode="&#xd1;" 
d="M129 0v1464h768v-1464h-768zM256 104h512v1258h-512v-1258z" />
    <glyph glyph-name="Odieresis" unicode="&#xd6;" horiz-adv-x="1185" 
d="M670 1484q242 -37 358 -286q99 -184 99 -452v-18q0 -335 -163 -570q-116 -158 -328 -177q-22 -2 -43 -2q-220 0 -369 186q-154 248 -156 509q-1 22 -1 44q0 353 157 584q105 126 219 161q79 25 158 25q35 0 69 -4zM593 235q116 6 196 159q58 102 73 300q3 252 -89 413
q-75 112 -166 125q-120 -6 -200 -157q-57 -106 -74 -304q-2 -252 91 -412q74 -112 169 -124zM889 1734.5q23 -53.5 0 -107t-74.5 -75t-100 0t-71.5 75t0 107t73 73.5q25 10 50 10t50 -10q50 -20 73 -73.5zM554 1734.5q23 -53.5 0 -107t-74 -75t-100 0t-71.5 75t0 107
t73.5 73.5q25 10 50 10t50 -10q49 -20 72 -73.5z" />
    <glyph glyph-name="Udieresis" unicode="&#xdc;" horiz-adv-x="1200" 
d="M378 1471l1 -996q19 -190 214 -212q193 21 217 210v998h284v-1073q-37 -196 -186 -306q-132 -93 -271 -98q-21 -2 -42 -2q-206 0 -341 119q-153 149 -162 303v1057h286zM882 1734.5q23 -53.5 0 -107t-74.5 -75t-100 0t-71.5 75t0 107t73 73.5q25 10 50 10t50 -10
q50 -20 73 -73.5zM547 1734.5q23 -53.5 0 -107t-74 -75t-100 0t-71.5 75t0 107t73.5 73.5q25 10 50 10t50 -10q49 -20 72 -73.5z" />
    <glyph glyph-name="aacute" unicode="&#xe1;" horiz-adv-x="1179" 
d="M772 1468l378 -1465h-287l-63 249h-405l-64 -249h-290l374 1465h357zM450 531h289l-140 572zM868 1832l-161 -304h-320l131 304h350z" />
    <glyph glyph-name="agrave" unicode="&#xe0;" horiz-adv-x="1179" 
d="M772 1468l378 -1465h-287l-63 249h-405l-64 -249h-290l374 1465h357zM450 531h289l-140 572zM694 1832l131 -304h-318l-160 304h347z" />
    <glyph glyph-name="acircumflex" unicode="&#xe2;" horiz-adv-x="1179" 
d="M772 1468l378 -1465h-287l-63 249h-405l-64 -249h-290l374 1465h357zM450 531h289l-140 572zM693 1832l-151 -304h-318l131 304h338zM839 1832l131 -304h-318l-149 304h336z" />
    <glyph glyph-name="adieresis" unicode="&#xe4;" horiz-adv-x="1179" 
d="M889 1734.5q23 -53.5 0 -107t-74.5 -75t-100 0t-71.5 75t0 107t73 73.5q25 10 50 10t50 -10q50 -20 73 -73.5zM772 1468l378 -1465h-287l-63 249h-405l-64 -249h-290l374 1465h357zM450 531h289l-140 572zM554 1734.5q23 -53.5 0 -107t-74 -75t-100 0t-71.5 75t0 107
t73.5 73.5q25 10 50 10t50 -10q49 -20 72 -73.5z" />
    <glyph glyph-name="atilde" unicode="&#xe3;" 
d="M129 0v1464h768v-1464h-768zM256 104h512v1258h-512v-1258z" />
    <glyph glyph-name="aring" unicode="&#xe5;" 
d="M129 0v1464h768v-1464h-768zM256 104h512v1258h-512v-1258z" />
    <glyph glyph-name="ccedilla" unicode="&#xe7;" horiz-adv-x="1088" 
d="M666 1484q291 -50 381 -347l9 -49l-253 -53q-31 128 -106 170t-176 -8q-67 -57 -111.5 -156t-58.5 -268q-6 -180 47 -312.5t128.5 -175.5t154.5 -12q79 20 126 163l253 -78q-51 -201 -197 -291q-107 -68 -252 -77q-273 6 -408 223q-142 236 -146 511q2 344 148 563
q92 121 206 167q86 34 187 34q33 0 68 -4zM696 206l-168 -330h-324l138 330h354z" />
    <glyph glyph-name="eacute" unicode="&#xe9;" horiz-adv-x="1028" 
d="M952 1465v-268h-606v-320h444v-271h-444v-335h632v-271h-914v1465h888zM741 1832l-163 -304h-325l133 304h355z" />
    <glyph glyph-name="egrave" unicode="&#xe8;" horiz-adv-x="1028" 
d="M952 1465v-268h-606v-320h444v-271h-444v-335h632v-271h-914v1465h888zM649 1832l132 -304h-322l-162 304h352z" />
    <glyph glyph-name="ecircumflex" unicode="&#xea;" horiz-adv-x="1028" 
d="M952 1465v-268h-606v-320h444v-271h-444v-335h632v-271h-914l1 1465h887zM613 1832l-151 -304h-318l131 304h338zM759 1832l131 -304h-318l-149 304h336z" />
    <glyph glyph-name="edieresis" unicode="&#xeb;" horiz-adv-x="1028" 
d="M952 1465v-268h-606v-320h444v-271h-444v-335h632v-271h-914l1 1465h887zM809 1734.5q23 -53.5 0 -107t-74.5 -75t-100 0t-71.5 75t0 107t73 73.5q25 10 50 10t50 -10q50 -20 73 -73.5zM474 1734.5q23 -53.5 0 -107t-74 -75t-100 0t-71.5 75t0 107t73.5 73.5q25 10 50 10
t50 -10q49 -20 72 -73.5z" />
    <glyph glyph-name="iacute" unicode="&#xed;" 
d="M129 0v1812h768v-1812h-768zM256 129h512v1557h-512v-1557z" />
    <glyph glyph-name="igrave" unicode="&#xec;" 
d="M129 0v1812h768v-1812h-768zM256 129h512v1557h-512v-1557z" />
    <glyph glyph-name="icircumflex" unicode="&#xee;" horiz-adv-x="739" 
d="M519 1467v-1467h-279v1467h279zM478 1832l-151 -304h-318l131 304h338zM624 1832l131 -304h-318l-149 304h336z" />
    <glyph glyph-name="idieresis" unicode="&#xef;" horiz-adv-x="653" 
d="M476 1464v-1464h-278v1464h278zM624 1735q12 -27 12 -54t-12 -53q-23 -54 -74.5 -75.5t-100 0t-71.5 75t0 107t73 73.5q25 10 50 10t50 -10q50 -20 73 -73zM289 1734.5q23 -53.5 0 -107t-74 -75t-100 0t-71 75.5q-12 26 -12 53t12 54q22 53 73 73q25 10 50 10t50 -10
q49 -20 72 -73.5z" />
    <glyph glyph-name="ntilde" unicode="&#xf1;" 
d="M129 0v1464h768v-1464h-768zM256 104h512v1258h-512v-1258z" />
    <glyph glyph-name="oacute" unicode="&#xf3;" 
d="M129 0v1464h768v-1464h-768zM256 104h512v1258h-512v-1258z" />
    <glyph glyph-name="ograve" unicode="&#xf2;" 
d="M129 0v1464h768v-1464h-768zM256 104h512v1258h-512v-1258z" />
    <glyph glyph-name="ocircumflex" unicode="&#xf4;" horiz-adv-x="1178" 
d="M670 1484q242 -37 358 -286q99 -184 99 -452v-18q0 -335 -163 -570q-116 -158 -328 -177q-22 -2 -43 -2q-220 0 -369 186q-154 248 -156 509q-1 22 -1 44q0 353 157 584q105 126 219 161q79 25 158 25q35 0 69 -4zM593 235q116 6 196 159q58 102 73 300q3 252 -89 413
q-75 112 -166 125q-120 -6 -200 -157q-57 -106 -74 -304q-2 -252 91 -412q74 -112 169 -124zM699 1832l-151 -304h-318l131 304h338zM845 1832l131 -304h-318l-149 304h336z" />
    <glyph glyph-name="odieresis" unicode="&#xf6;" horiz-adv-x="1185" 
d="M670 1484q242 -37 358 -286q99 -184 99 -452v-18q0 -335 -163 -570q-116 -158 -328 -177q-22 -2 -43 -2q-220 0 -369 186q-154 248 -156 509q-1 22 -1 44q0 353 157 584q105 126 219 161q79 25 158 25q35 0 69 -4zM593 235q116 6 196 159q58 102 73 300q3 252 -89 413
q-75 112 -166 125q-120 -6 -200 -157q-57 -106 -74 -304q-2 -252 91 -412q74 -112 169 -124zM889 1734.5q23 -53.5 0 -107t-74.5 -75t-100 0t-71.5 75t0 107t73 73.5q25 10 50 10t50 -10q50 -20 73 -73.5zM554 1734.5q23 -53.5 0 -107t-74 -75t-100 0t-71.5 75t0 107
t73.5 73.5q25 10 50 10t50 -10q49 -20 72 -73.5z" />
    <glyph glyph-name="otilde" unicode="&#xf5;" 
d="M129 0v1464h768v-1464h-768zM256 104h512v1258h-512v-1258z" />
    <glyph glyph-name="uacute" unicode="&#xfa;" 
d="M129 0v1464h768v-1464h-768zM256 104h512v1258h-512v-1258z" />
    <glyph glyph-name="ugrave" unicode="&#xf9;" horiz-adv-x="1178" 
d="M379 1475l1 -998q19 -191 215 -213q193 21 217 210v1001h285v-1075q-37 -198 -186 -308q-133 -93 -272 -98q-21 -2 -43 -2q-206 0 -341 120q-154 149 -163 304v1059h287zM690 1832l135 -304h-328l-165 304h358z" />
    <glyph glyph-name="ucircumflex" unicode="&#xfb;" horiz-adv-x="1179" 
d="M382 1468l1 -996q19 -191 214 -213q193 21 216 210v999h285v-1073q-37 -197 -186 -307q-132 -93 -271 -98q-21 -2 -43 -2q-206 0 -341 119q-153 150 -162 304v1057h287zM692 1832l-151 -304h-318l131 304h338zM838 1832l131 -304h-318l-149 304h336z" />
    <glyph glyph-name="udieresis" unicode="&#xfc;" horiz-adv-x="1200" 
d="M378 1471l1 -996q19 -190 214 -212q193 21 217 210v998h284v-1073q-37 -196 -186 -306q-132 -93 -271 -98q-21 -2 -42 -2q-206 0 -341 119q-153 149 -162 303v1057h286zM882 1734.5q23 -53.5 0 -107t-74.5 -75t-100 0t-71.5 75t0 107t73 73.5q25 10 50 10t50 -10
q50 -20 73 -73.5zM547 1734.5q23 -53.5 0 -107t-74 -75t-100 0t-71.5 75t0 107t73.5 73.5q25 10 50 10t50 -10q49 -20 72 -73.5z" />
    <glyph glyph-name="degree" unicode="&#xb0;" 
d="M129 0v1464h768v-1464h-768zM256 104h512v1258h-512v-1258z" />
    <glyph glyph-name="cent" unicode="&#xa2;" 
d="M129 0v1464h768v-1464h-768zM256 104h512v1258h-512v-1258z" />
    <glyph glyph-name="sterling" unicode="&#xa3;" 
d="M129 0v1464h768v-1464h-768zM256 104h512v1258h-512v-1258z" />
    <glyph glyph-name="section" unicode="&#xa7;" 
d="M129 0v1464h768v-1464h-768zM256 104h512v1258h-512v-1258z" />
    <glyph glyph-name="paragraph" unicode="&#xb6;" horiz-adv-x="765" 
d="M561 -307v1693h-117v-1693h-113v998q-256 0 -256 408q0 187 60 292.5t166 105.5h373v-1804h-113z" />
    <glyph glyph-name="germandbls" unicode="&#xdf;" horiz-adv-x="1085" 
d="M511 206q0 5 12 8q99 29 128 41q15 -19 41 -34q40 -22 84 -26q48 -1 59 2q54 14 68 29q13 10 22 50q3 15 -4 34q-9 13 -18 22l-19 12l-21 9q-176 51 -194 59q-82 31 -122 101q-25 45 -24 112q11 82 74 130q72 48 150 53h11q56 0 94 -8q73 -20 115 -53q41 -31 68 -85
l-2 -5l-114 -51l-7 3q-10 31 -59 50q-56 19 -128 1q-33 -10 -46 -26q-4 -3 -12 -24q-1 -25 3 -29q7 -17 29 -32l15 -5q158 -43 214 -62q48 -21 74 -46l31 -38q35 -53 37 -115v-6q0 -20 -6 -57q-15 -47 -34 -70q-33 -38 -48 -46q-81 -50 -169 -56h-51q-57 6 -96 21
q-62 27 -100 59q-32 28 -55 78zM857 1274l-714 -1058h-133l725 1058h122z" />
    <glyph glyph-name="registered" unicode="&#xae;" 
d="M129 0v1464h768v-1464h-768zM256 104h512v1258h-512v-1258z" />
    <glyph glyph-name="copyright" unicode="&#xa9;" 
d="M129 0v1464h768v-1464h-768zM256 104h512v1258h-512v-1258z" />
    <glyph glyph-name="acute" unicode="&#xb4;" 
d="M129 0v1464h768v-1464h-768zM256 104h512v1258h-512v-1258z" />
    <glyph glyph-name="dieresis" unicode="&#xa8;" 
d="M129 0v1464h768v-1464h-768zM256 104h512v1258h-512v-1258z" />
    <glyph glyph-name="AE" unicode="&#xc6;" 
d="M129 0v1464h768v-1464h-768zM256 104h512v1258h-512v-1258z" />
    <glyph glyph-name="Oslash" unicode="&#xd8;" 
d="M129 0v1464h768v-1464h-768zM256 104h512v1258h-512v-1258z" />
    <glyph glyph-name="infinity" unicode="&#x221e;" 
d="M129 0v1464h768v-1464h-768zM256 104h512v1258h-512v-1258z" />
    <glyph glyph-name="plusminus" unicode="&#xb1;" 
d="M129 0v1464h768v-1464h-768zM256 104h512v1258h-512v-1258z" />
    <glyph glyph-name="lessequal" unicode="&#x2264;" 
d="M129 0v1464h768v-1464h-768zM256 104h512v1258h-512v-1258z" />
    <glyph glyph-name="greaterequal" unicode="&#x2265;" 
d="M129 0v1464h768v-1464h-768zM256 104h512v1258h-512v-1258z" />
    <glyph glyph-name="yen" unicode="&#xa5;" 
d="M129 0v1464h768v-1464h-768zM256 104h512v1258h-512v-1258z" />
    <glyph glyph-name="mu1" unicode="&#xb5;" 
d="M129 0v1464h768v-1464h-768zM256 104h512v1258h-512v-1258z" />
    <glyph glyph-name="ordfeminine" unicode="&#xaa;" 
d="M129 0v1464h768v-1464h-768zM256 104h512v1258h-512v-1258z" />
    <glyph glyph-name="ordmasculine" unicode="&#xba;" 
d="M129 0v1464h768v-1464h-768zM256 104h512v1258h-512v-1258z" />
    <glyph glyph-name="ae" unicode="&#xe6;" 
d="M129 0v1464h768v-1464h-768zM256 104h512v1258h-512v-1258z" />
    <glyph glyph-name="oslash" unicode="&#xf8;" 
d="M129 0v1464h768v-1464h-768zM256 104h512v1258h-512v-1258z" />
    <glyph glyph-name="questiondown" unicode="&#xbf;" 
d="M129 0v1464h768v-1464h-768zM256 104h512v1258h-512v-1258z" />
    <glyph glyph-name="exclamdown" unicode="&#xa1;" 
d="M129 0v1464h768v-1464h-768zM256 104h512v1258h-512v-1258z" />
    <glyph glyph-name="logicalnot" unicode="&#xac;" 
d="M129 0v1464h768v-1464h-768zM256 104h512v1258h-512v-1258z" />
    <glyph glyph-name="guillemotleft" unicode="&#xab;" 
d="M129 0v1464h768v-1464h-768zM256 104h512v1258h-512v-1258z" />
    <glyph glyph-name="guillemotright" unicode="&#xbb;" 
d="M129 0v1464h768v-1464h-768zM256 104h512v1258h-512v-1258z" />
    <glyph glyph-name="Agrave" unicode="&#xc0;" horiz-adv-x="1179" 
d="M772 1468l378 -1465h-287l-63 249h-405l-64 -249h-290l374 1465h357zM450 531h289l-140 572zM690 1832l135 -304h-328l-165 304h358z" />
    <glyph glyph-name="Atilde" unicode="&#xc3;" 
d="M129 0v1464h768v-1464h-768zM256 104h512v1258h-512v-1258z" />
    <glyph glyph-name="Otilde" unicode="&#xd5;" 
d="M129 0v1464h768v-1464h-768zM256 104h512v1258h-512v-1258z" />
    <glyph glyph-name="OE" unicode="&#x152;" horiz-adv-x="1851" 
d="M663 1484q242 -37 358 -286q99 -184 99 -452v-18q0 -335 -163 -570q-116 -158 -328 -177q-22 -2 -43 -2q-220 0 -369 186q-154 248 -156 509q-1 22 -1 44q0 353 157 584q105 126 219 161q79 25 158 25q35 0 69 -4zM586 235q116 6 196 159q58 102 73 300q3 252 -89 413
q-75 112 -166 125q-120 -6 -200 -157q-57 -106 -74 -304q-2 -252 91 -412q74 -112 169 -124zM1777 1465v-268h-606v-320h444v-271h-444v-335h632v-271h-914v366l109 371l-108 362v366h887z" />
    <glyph glyph-name="oe" unicode="&#x153;" horiz-adv-x="1851" 
d="M663 1484q242 -37 358 -286q99 -184 99 -452v-18q0 -335 -163 -570q-116 -158 -328 -177q-22 -2 -43 -2q-220 0 -369 186q-154 248 -156 509q-1 22 -1 44q0 353 157 584q105 126 219 161q79 25 158 25q35 0 69 -4zM586 235q116 6 196 159q58 102 73 300q3 252 -89 413
q-75 112 -166 125q-120 -6 -200 -157q-57 -106 -74 -304q-2 -252 91 -412q74 -112 169 -124zM1777 1465v-268h-606v-320h444v-271h-444v-335h632v-271h-914v366l109 371l-108 362v366h887z" />
    <glyph glyph-name="Euro" unicode="&#x20ac;" horiz-adv-x="1336" 
d="M890 1479q288 -49 376 -342l9 -49l-250 -52q-31 126 -105 170.5t-187 -5.5q-67 -62 -111 -160t-58 -265q-6 -178 46.5 -313.5t134.5 -182.5t160 -17q78 20 124 171l250 -77q-51 -199 -195 -288q-105 -68 -249 -76q-270 15 -403 230q-141 233 -144 505q2 340 150 555
q87 121 200 166q84 34 184 34q33 0 68 -4zM125 948l787 3l-65 -154h-777zM86 684l788 3l-66 -153h-777z" />
    <glyph glyph-name="periodcentered" unicode="&#x2219;" horiz-adv-x="752" 
d="M355 801q62 0 106 -44t44 -106t-44 -106.5t-106 -44.5t-106 44.5t-44 106.5t44 106t106 44z" />
    <glyph glyph-name="Acircumflex" unicode="&#xc2;" horiz-adv-x="1179" 
d="M772 1468l378 -1465h-287l-63 249h-405l-64 -249h-290l374 1465h357zM450 531h289l-140 572zM693 1832l-151 -304h-318l131 304h338zM839 1832l131 -304h-318l-149 304h336z" />
    <glyph glyph-name="Ecircumflex" unicode="&#xca;" horiz-adv-x="1028" 
d="M952 1465v-268h-606v-320h444v-271h-444v-335h632v-271h-914l1 1465h887zM613 1832l-151 -304h-318l131 304h338zM759 1832l131 -304h-318l-149 304h336z" />
    <glyph glyph-name="Aacute" unicode="&#xc1;" horiz-adv-x="1179" 
d="M772 1468l378 -1465h-287l-63 249h-405l-64 -249h-290l374 1465h357zM450 531h289l-140 572zM868 1832l-164 -304h-326l134 304h356z" />
    <glyph glyph-name="Edieresis" unicode="&#xcb;" horiz-adv-x="1028" 
d="M952 1465v-268h-606v-320h444v-271h-444v-335h632v-271h-914l1 1465h887zM809 1734.5q23 -53.5 0 -107t-74.5 -75t-100 0t-71.5 75t0 107t73 73.5q25 10 50 10t50 -10q50 -20 73 -73.5zM474 1734.5q23 -53.5 0 -107t-74 -75t-100 0t-71.5 75t0 107t73.5 73.5q25 10 50 10
t50 -10q49 -20 72 -73.5z" />
    <glyph glyph-name="Egrave" unicode="&#xc8;" horiz-adv-x="1028" 
d="M952 1465v-268h-606v-320h444v-271h-444v-335h632v-271h-914v1465h888zM634 1832l127 -304h-309l-155 304h337z" />
    <glyph glyph-name="Iacute" unicode="&#xcd;" 
d="M129 0v1464h768v-1464h-768zM256 104h512v1258h-512v-1258z" />
    <glyph glyph-name="Icircumflex" unicode="&#xce;" horiz-adv-x="739" 
d="M519 1467v-1467h-279v1467h279zM478 1832l-151 -304h-318l131 304h338zM624 1832l131 -304h-318l-149 304h336z" />
    <glyph glyph-name="Idieresis" unicode="&#xcf;" horiz-adv-x="653" 
d="M476 1464v-1464h-278v1464h278zM624 1735q12 -27 12 -54t-12 -53q-23 -54 -74.5 -75.5t-100 0t-71.5 75t0 107t73 73.5q25 10 50 10t50 -10q50 -20 73 -73zM289 1734.5q23 -53.5 0 -107t-74 -75t-100 0t-71 75.5q-12 26 -12 53t12 54q22 53 73 73q25 10 50 10t50 -10
q49 -20 72 -73.5z" />
    <glyph glyph-name="Igrave" unicode="&#xcc;" 
d="M129 0v1464h768v-1464h-768zM256 104h512v1258h-512v-1258z" />
    <glyph glyph-name="Oacute" unicode="&#xd3;" 
d="M129 0v1464h768v-1464h-768zM256 104h512v1258h-512v-1258z" />
    <glyph glyph-name="Ocircumflex" unicode="&#xd4;" horiz-adv-x="1178" 
d="M670 1484q242 -37 358 -286q99 -184 99 -452v-18q0 -335 -163 -570q-116 -158 -328 -177q-22 -2 -43 -2q-220 0 -369 186q-154 248 -156 509q-1 22 -1 44q0 353 157 584q105 126 219 161q79 25 158 25q35 0 69 -4zM593 235q116 6 196 159q58 102 73 300q3 252 -89 413
q-75 112 -166 125q-120 -6 -200 -157q-57 -106 -74 -304q-2 -252 91 -412q74 -112 169 -124zM699 1832l-151 -304h-318l131 304h338zM845 1832l131 -304h-318l-149 304h336z" />
    <glyph glyph-name="Ograve" unicode="&#xd2;" 
d="M129 0v1464h768v-1464h-768zM256 104h512v1258h-512v-1258z" />
    <glyph glyph-name="Uacute" unicode="&#xda;" 
d="M129 0v1464h768v-1464h-768zM256 104h512v1258h-512v-1258z" />
    <glyph glyph-name="Ucircumflex" unicode="&#xdb;" horiz-adv-x="1179" 
d="M382 1468l1 -996q19 -191 214 -213q193 21 216 210v999h285v-1073q-37 -197 -186 -307q-132 -93 -271 -98q-21 -2 -43 -2q-206 0 -341 119q-153 150 -162 304v1057h287zM692 1832l-151 -304h-318l131 304h338zM838 1832l131 -304h-318l-149 304h336z" />
    <glyph glyph-name="Ugrave" unicode="&#xd9;" horiz-adv-x="1178" 
d="M379 1475l1 -998q19 -191 215 -213q193 21 217 210v1001h285v-1075q-37 -198 -186 -308q-133 -93 -272 -98q-21 -2 -43 -2q-206 0 -341 120q-154 149 -163 304v1059h287zM690 1832l135 -304h-328l-165 304h358z" />
    <glyph glyph-name="brokenbar" unicode="&#xa6;" 
d="M129 0v1464h768v-1464h-768zM256 104h512v1258h-512v-1258z" />
    <glyph glyph-name="eth" unicode="&#xf0;" 
d="M129 0v1464h768v-1464h-768zM256 104h512v1258h-512v-1258z" />
    <glyph glyph-name="Yacute" unicode="&#xdd;" 
d="M129 0v1464h768v-1464h-768zM256 104h512v1258h-512v-1258z" />
    <glyph glyph-name="Thorn" unicode="&#xde;" 
d="M129 0v1464h768v-1464h-768zM256 104h512v1258h-512v-1258z" />
    <glyph glyph-name="thorn" unicode="&#xfe;" 
d="M129 0v1464h768v-1464h-768zM256 104h512v1258h-512v-1258z" />
    <glyph glyph-name="multiply" unicode="&#xd7;" 
d="M129 0v1464h768v-1464h-768zM256 104h512v1258h-512v-1258z" />
    <glyph glyph-name="onesuperior" unicode="&#xb9;" 
d="M129 0v1464h768v-1464h-768zM256 104h512v1258h-512v-1258z" />
    <glyph glyph-name="twosuperior" unicode="&#xb2;" 
d="M129 0v1464h768v-1464h-768zM256 104h512v1258h-512v-1258z" />
    <glyph glyph-name="threesuperior" unicode="&#xb3;" 
d="M129 0v1464h768v-1464h-768zM256 104h512v1258h-512v-1258z" />
    <glyph glyph-name="onehalf" unicode="&#xbd;" 
d="M129 0v1464h768v-1464h-768zM256 104h512v1258h-512v-1258z" />
    <glyph glyph-name="onequarter" unicode="&#xbc;" 
d="M129 0v1464h768v-1464h-768zM256 104h512v1258h-512v-1258z" />
    <glyph glyph-name="threequarters" unicode="&#xbe;" 
d="M129 0v1464h768v-1464h-768zM256 104h512v1258h-512v-1258z" />
    <glyph glyph-name="overscore" unicode="&#xaf;" 
d="M129 0v1464h768v-1464h-768zM256 104h512v1258h-512v-1258z" />
    <glyph glyph-name="Abreve" unicode="&#x102;" 
d="M129 0v1464h768v-1464h-768zM256 104h512v1258h-512v-1258z" />
    <glyph glyph-name="abreve" unicode="&#x103;" 
d="M129 0v1464h768v-1464h-768zM256 104h512v1258h-512v-1258z" />
    </font>
</defs>
</svg>
